<svg width="144" height="48" viewBox="0 0 144 48" fill="none" xmlns="http://www.w3.org/2000/svg">
<path d="M0 32.2509V0.887138H10.7253V32.2509H0Z" fill="white"/>
<path d="M32.4022 9.7884V32.2459H21.7674V9.7884H13.9886V0.887138H40.176V9.79338H32.4022V9.7884Z" fill="white"/>
<path d="M37.8076 23.4343V15.8139H50.142V23.4343H37.8076Z" fill="white"/>
<path d="M64.2664 33.133C61.7624 33.133 59.3287 32.7044 56.9604 31.8472C54.592 30.9899 52.5858 29.8386 50.9465 28.3933L57.428 21.3959C58.2023 22.2531 59.213 22.9758 60.4651 23.5689C61.7171 24.162 62.9692 24.456 64.2212 24.456C65.8001 24.456 66.5895 23.9676 66.5895 22.9957C66.5895 22.4375 66.2476 21.979 65.5637 21.6202C64.8799 21.2663 63.3563 20.7031 61.0031 19.9356C58.4688 19.1083 56.4726 18.0019 55.0144 16.6114C53.5562 15.2258 52.8221 13.2721 52.8221 10.7652C52.8221 8.90624 53.2143 7.25657 54.0088 5.82619C54.7982 4.39581 55.8491 3.26446 57.1615 2.43713C58.4739 1.6098 59.8818 0.996781 61.3852 0.598069C62.8887 0.199356 64.4626 0 66.1018 0C68.2187 0 70.3557 0.413664 72.5128 1.24099C74.675 2.06832 76.5556 3.20465 78.1646 4.64998L71.5524 11.3384C70.8686 10.5111 70.0087 9.85318 68.983 9.36476C67.9572 8.87634 66.9918 8.63213 66.1018 8.63213C64.372 8.63213 63.5072 9.1056 63.5072 10.0476C63.5072 10.4911 63.7133 10.825 64.1307 11.0443C64.548 11.2636 65.3827 11.5826 66.6348 11.9963C67.4996 12.2903 68.1835 12.5196 68.6913 12.684C69.1992 12.8485 69.878 13.1027 70.7228 13.4615C71.5725 13.8154 72.2564 14.1543 72.7793 14.4782C73.3023 14.8022 73.8805 15.2308 74.5241 15.7641C75.1627 16.2974 75.6656 16.8406 76.0226 17.4038C76.3796 17.967 76.6863 18.6348 76.9377 19.4173C77.1891 20.1998 77.3148 21.0321 77.3148 21.9192C77.3148 25.4628 76.0175 28.2189 73.428 30.1825C70.8384 32.1512 67.7812 33.133 64.2664 33.133Z" fill="#00FEFF"/>
<path d="M95.0597 22.1485H92.0629V32.2509H81.4683V0.887138H95.0547C96.7844 0.887138 98.3784 1.06656 99.8366 1.42042C101.295 1.77427 102.657 2.33746 103.925 3.10498C105.192 3.8725 106.187 4.96397 106.921 6.38439C107.651 7.79982 108.018 9.48438 108.018 11.4331C108.018 13.2921 107.651 14.9318 106.921 16.3522C106.192 17.7676 105.207 18.894 103.97 19.7163C102.733 20.5437 101.36 21.1567 99.8567 21.5554C98.3583 21.9491 96.7593 22.1485 95.0597 22.1485ZM94.3004 9.08068H92.0679V14.1294H94.3004C95.1955 14.1294 95.9548 13.9101 96.5783 13.4665C97.2018 13.023 97.5185 12.375 97.5185 11.5178C97.5185 9.89306 96.4475 9.08068 94.3004 9.08068Z" fill="#00FEFF"/>
<path d="M130.947 32.2509L122.499 19.7612H122.408V32.2509H112.04V0.887138H122.363V12.4498H122.454L130.901 0.887138H143.417L131.53 15.2408L144 32.2509H130.947Z" fill="#00FEFF"/>
<path d="M3.43935 41.0176L2.87115 41.6356C2.78064 41.511 2.64991 41.4113 2.47894 41.3315C2.30798 41.2518 2.14205 41.2169 1.97109 41.2169C1.74481 41.2169 1.54368 41.2717 1.36769 41.3864C1.1917 41.496 1.10622 41.6655 1.10622 41.8848C1.10622 41.9944 1.12634 42.0891 1.16656 42.1638C1.20679 42.2386 1.27718 42.3084 1.37272 42.3682C1.47329 42.428 1.5638 42.4729 1.65431 42.5077C1.73979 42.5376 1.87052 42.5825 2.04148 42.6373C2.20239 42.6872 2.33815 42.732 2.43872 42.7669C2.54431 42.8018 2.66499 42.8616 2.81081 42.9413C2.95663 43.0211 3.07228 43.1058 3.15776 43.2005C3.24324 43.2952 3.31867 43.4098 3.37901 43.5593C3.43935 43.7089 3.47454 43.8733 3.47454 44.0577C3.47454 44.5561 3.30358 44.9399 2.96669 45.209C2.62476 45.4781 2.20239 45.6127 1.6895 45.6127C1.36267 45.6127 1.04588 45.5529 0.744186 45.4333C0.437461 45.3037 0.191075 45.1343 0 44.91L0.623507 44.3318C0.744186 44.4913 0.905091 44.6209 1.10119 44.7206C1.30233 44.8203 1.49843 44.8701 1.69453 44.8701C1.93086 44.8701 2.13702 44.8103 2.31301 44.6907C2.489 44.5711 2.57951 44.3917 2.57951 44.1474C2.57951 44.0627 2.56945 43.9929 2.54431 43.9232C2.52923 43.8584 2.48397 43.7986 2.42363 43.7437C2.36329 43.6889 2.30798 43.6441 2.26273 43.6092C2.21245 43.5743 2.13199 43.5394 2.01131 43.4946C1.89566 43.4497 1.81018 43.4198 1.7599 43.3999C1.70962 43.3799 1.60905 43.35 1.45317 43.3052C1.27718 43.2503 1.12634 43.1955 1.00063 43.1357C0.874922 43.0759 0.749214 42.9962 0.613451 42.8915C0.482715 42.7868 0.38215 42.6573 0.311754 42.4928C0.241358 42.3283 0.20616 42.1389 0.20616 41.9246C0.20616 41.4611 0.38215 41.1073 0.73413 40.863C1.08611 40.6188 1.50849 40.4942 2.00126 40.4942C2.2577 40.4942 2.51917 40.5391 2.77561 40.6288C3.03708 40.7185 3.25833 40.8481 3.43935 41.0176Z" fill="#00FEFF"/>
<path d="M5.73218 45.4831V40.6188H6.6071V45.4831H5.73218Z" fill="#00FEFF"/>
<path d="M9.07104 45.4831V40.6188H10.4337L11.7109 44.0727H11.731L12.9931 40.6188H14.3658V45.4831H13.501V41.5757H13.4859L11.9975 45.4831H11.3891L9.92082 41.5757H9.90574V45.4831H9.07104Z" fill="#00FEFF"/>
<path d="M16.8347 45.4831V40.6188H18.4337C19.6656 40.6188 20.2841 41.0873 20.2841 42.0293C20.2841 42.5327 20.1081 42.9015 19.7562 43.1307C19.4042 43.36 18.9466 43.4746 18.3784 43.4746H17.7046V45.4881H16.8347V45.4831ZM17.7096 42.742H18.3181C19.0421 42.742 19.4042 42.5028 19.4042 42.0293C19.4042 41.7701 19.3086 41.5907 19.1176 41.496C18.9265 41.4013 18.67 41.3515 18.3432 41.3515H17.7046V42.742H17.7096Z" fill="#00FEFF"/>
<path d="M22.4463 45.4831V40.6188H23.3212V44.7106H25.4079V45.4781H22.4463V45.4831Z" fill="#00FEFF"/>
<path d="M27.374 45.4831V40.6188H30.6223V41.3764H28.2439V42.6124H30.4966V43.34H28.2439V44.7156H30.748V45.4831H27.374Z" fill="#00FEFF"/>
<path d="M36.1082 45.4831V40.6188H37.7071C38.9391 40.6188 39.5576 41.0873 39.5576 42.0293C39.5576 42.5327 39.3816 42.9015 39.0296 43.1307C38.6776 43.36 38.22 43.4746 37.6518 43.4746H36.978V45.4881H36.1082V45.4831ZM36.9831 42.742H37.5915C38.3156 42.742 38.6776 42.5028 38.6776 42.0293C38.6776 41.7701 38.5821 41.5907 38.391 41.496C38.1999 41.4013 37.9435 41.3515 37.6166 41.3515H36.978V42.742H36.9831Z" fill="#00FEFF"/>
<path d="M41.4834 43.036C41.4834 42.2685 41.7298 41.6505 42.2226 41.187C42.7153 40.7235 43.3439 40.4942 44.1132 40.4942C44.8876 40.4942 45.5261 40.7235 46.0189 41.187C46.5117 41.6505 46.7631 42.2635 46.7631 43.036C46.7631 43.7936 46.5167 44.4066 46.0189 44.8851C45.5211 45.3635 44.8876 45.6027 44.1182 45.6027C43.3539 45.6027 42.7254 45.3635 42.2326 44.8851C41.7348 44.4116 41.4834 43.7936 41.4834 43.036ZM42.4337 43.036C42.4337 43.5593 42.5896 43.988 42.9064 44.3219C43.2182 44.6608 43.6254 44.8253 44.1182 44.8253C44.616 44.8253 45.0233 44.6558 45.3401 44.3219C45.6519 43.983 45.8128 43.5544 45.8128 43.036C45.8128 42.5277 45.6569 42.104 45.3451 41.7651C45.0334 41.4262 44.6261 41.2568 44.1233 41.2568C43.6255 41.2568 43.2182 41.4262 42.9064 41.7651C42.5896 42.104 42.4337 42.5277 42.4337 43.036Z" fill="#00FEFF"/>
<path d="M49.9259 45.4831L48.4928 40.6188H49.4482L50.3985 44.1923H50.4136L51.4947 40.6188H52.3947L53.4557 44.1923H53.4708L54.4413 40.6188H55.3715L53.9384 45.4831H53.0937L51.9422 41.8349H51.9271L50.7756 45.4831H49.9259Z" fill="#00FEFF"/>
<path d="M57.3375 45.4831V40.6188H60.5858V41.3764H58.2074V42.6124H60.4601V43.34H58.2074V44.7156H60.7115V45.4831H57.3375Z" fill="#00FEFF"/>
<path d="M62.9492 45.4831V40.6188H64.6538C64.9806 40.6188 65.2773 40.6637 65.5388 40.7484C65.8003 40.8331 66.0215 40.9827 66.1975 41.202C66.3735 41.4212 66.464 41.6904 66.464 42.0143C66.464 42.3582 66.3634 42.6423 66.1673 42.8716C65.9662 43.0958 65.6947 43.2503 65.3427 43.3301L66.65 45.4881H65.5941L64.4577 43.4298H63.8191V45.4881H62.9492V45.4831ZM63.8241 42.7121H64.5382C65.2421 42.7121 65.5941 42.4778 65.5941 42.0044C65.5941 41.7651 65.4986 41.5957 65.3075 41.496C65.1164 41.3963 64.8851 41.3465 64.6136 41.3465H63.8241V42.7121Z" fill="#00FEFF"/>
<path d="M71.5776 43.036C71.5776 42.2685 71.824 41.6505 72.3168 41.187C72.8096 40.7235 73.4381 40.4942 74.2074 40.4942C74.9818 40.4942 75.6204 40.7235 76.1131 41.187C76.6059 41.6505 76.8573 42.2635 76.8573 43.036C76.8573 43.7936 76.6109 44.4066 76.1131 44.8851C75.6153 45.3635 74.9818 45.6027 74.2124 45.6027C73.4482 45.6027 72.8196 45.3635 72.3268 44.8851C71.824 44.4116 71.5776 43.7936 71.5776 43.036ZM72.528 43.036C72.528 43.5593 72.6839 43.988 73.0006 44.3219C73.3124 44.6608 73.7197 44.8253 74.2124 44.8253C74.7102 44.8253 75.1175 44.6558 75.4343 44.3219C75.7461 43.983 75.907 43.5544 75.907 43.036C75.907 42.5277 75.7511 42.104 75.4393 41.7651C75.1276 41.4262 74.7203 41.2568 74.2175 41.2568C73.7197 41.2568 73.3124 41.4262 73.0006 41.7651C72.6839 42.104 72.528 42.5277 72.528 43.036Z" fill="#00FEFF"/>
<path d="M79.0848 45.4831V40.6188H82.2527V41.3764H79.9598V42.7071H82.1219V43.4347H79.9598V45.4831H79.0848Z" fill="#00FEFF"/>
<path d="M87.5575 45.4831V40.6188H88.4324V42.722H88.4525L90.5041 40.6188H91.6807L89.3878 42.8666L91.8366 45.4831H90.6097L88.4525 43.046H88.4324V45.4831H87.5575Z" fill="#00FEFF"/>
<path d="M93.7222 45.4831V40.6188H94.8787L97.1565 44.2621H97.1716V40.6188H98.0465V45.4831H96.9352L94.6071 41.7253H94.5921V45.4831H93.7222Z" fill="#00FEFF"/>
<path d="M100.274 43.036C100.274 42.2685 100.52 41.6505 101.013 41.187C101.506 40.7235 102.134 40.4942 102.904 40.4942C103.678 40.4942 104.317 40.7235 104.809 41.187C105.302 41.6505 105.554 42.2635 105.554 43.036C105.554 43.7936 105.307 44.4066 104.809 44.8851C104.312 45.3635 103.678 45.6027 102.909 45.6027C102.144 45.6027 101.516 45.3635 101.023 44.8851C100.525 44.4116 100.274 43.7936 100.274 43.036ZM101.224 43.036C101.224 43.5593 101.38 43.988 101.697 44.3219C102.009 44.6608 102.416 44.8253 102.909 44.8253C103.407 44.8253 103.814 44.6558 104.131 44.3219C104.442 43.983 104.603 43.5544 104.603 43.036C104.603 42.5277 104.447 42.104 104.136 41.7651C103.824 41.4262 103.417 41.2568 102.914 41.2568C102.416 41.2568 102.009 41.4262 101.697 41.7651C101.38 42.104 101.224 42.5277 101.224 43.036Z" fill="#00FEFF"/>
<path d="M108.717 45.4831L107.283 40.6188H108.239L109.189 44.1923H109.204L110.285 40.6188H111.185L112.246 44.1923H112.261L113.232 40.6188H114.162L112.729 45.4831H111.884L110.733 41.8349H110.718L109.566 45.4831H108.717Z" fill="#00FEFF"/>
<path d="M116.128 45.4831V40.6188H117.003V44.7106H119.09V45.4781H116.128V45.4831Z" fill="#00FEFF"/>
<path d="M121.056 45.4831V40.6188H124.304V41.3764H121.926V42.6124H124.179V43.34H121.926V44.7156H124.43V45.4831H121.056Z" fill="#00FEFF"/>
<path d="M126.667 45.4831V40.6188H128.407C128.749 40.6188 129.071 40.6637 129.378 40.7484C129.684 40.8331 129.971 40.9677 130.238 41.1471C130.504 41.3265 130.72 41.5807 130.881 41.9097C131.042 42.2386 131.118 42.6174 131.118 43.051C131.118 43.4597 131.037 43.8235 130.881 44.1425C130.72 44.4614 130.509 44.7206 130.243 44.91C129.976 45.0994 129.689 45.2439 129.378 45.3386C129.066 45.4333 128.744 45.4831 128.412 45.4831H126.667ZM127.542 44.7256H128.272C128.463 44.7256 128.644 44.7106 128.815 44.6757C128.986 44.6458 129.162 44.586 129.332 44.5063C129.503 44.4265 129.649 44.3269 129.775 44.2023C129.896 44.0827 129.996 43.9182 130.072 43.7238C130.147 43.5245 130.187 43.3002 130.187 43.046C130.187 41.9196 129.549 41.3565 128.277 41.3565H127.547V44.7256H127.542Z" fill="#00FEFF"/>
<path d="M137.644 42.7071V45.2289C137.111 45.4831 136.498 45.6077 135.794 45.6077C135.004 45.6077 134.361 45.3685 133.858 44.895C133.36 44.4166 133.109 43.7986 133.109 43.041C133.109 42.2785 133.36 41.6605 133.863 41.197C134.366 40.7335 134.999 40.4992 135.774 40.4992C136.151 40.4992 136.508 40.554 136.84 40.6637C137.172 40.7733 137.438 40.9228 137.639 41.1122L137.036 41.7601C136.905 41.6206 136.729 41.501 136.503 41.4063C136.277 41.3116 136.035 41.2667 135.784 41.2667C135.276 41.2667 134.864 41.4362 134.552 41.7751C134.24 42.114 134.079 42.5376 134.079 43.046C134.079 43.5743 134.235 44.0029 134.552 44.3368C134.869 44.6707 135.291 44.8402 135.824 44.8402C136.196 44.8402 136.523 44.7854 136.8 44.6707V43.4347H135.769V42.722H137.644V42.7071Z" fill="#00FEFF"/>
<path d="M140.093 45.4831V40.6188H143.341V41.3764H140.963V42.6124H143.216V43.34H140.963V44.7156H143.467V45.4831H140.093Z" fill="#00FEFF"/>
<path d="M143.467 47.5016H0V48H143.467V47.5016Z" fill="#00FEFF"/>
</svg>
